<mxfile host="app.diagrams.net" modified="2021-05-27T08:37:11.313Z" agent="5.0 (Windows NT 10.0; Win64; x64) AppleWebKit/537.36 (KHTML, like Gecko) Chrome/90.0.4430.212 Safari/537.36" etag="oOke9LhdPQlSZeW_mgWg" version="14.6.13" type="github">
  <diagram id="OYwEamC41oitZHm3NPi-" name="Page-1">
    <mxGraphModel dx="2211" dy="1900" grid="1" gridSize="10" guides="1" tooltips="1" connect="1" arrows="1" fold="1" page="1" pageScale="1" pageWidth="827" pageHeight="1169" background="none" math="0" shadow="0">
      <root>
        <mxCell id="0" />
        <mxCell id="1" parent="0" />
        <mxCell id="2__qpBUTUIT2iE1Ks-om-31" value="" style="whiteSpace=wrap;html=1;aspect=fixed;shadow=0;" vertex="1" parent="1">
          <mxGeometry x="-140" y="-140" width="890" height="890" as="geometry" />
        </mxCell>
        <mxCell id="2__qpBUTUIT2iE1Ks-om-1" value="" style="ellipse;html=1;shape=endState;fillColor=#000000;strokeColor=#ff0000;" vertex="1" parent="1">
          <mxGeometry x="290" y="10" width="30" height="30" as="geometry" />
        </mxCell>
        <mxCell id="2__qpBUTUIT2iE1Ks-om-2" value="&lt;p style=&quot;margin: 4px 0px 0px 5px ; text-align: left ; font-size: 14px&quot;&gt;&lt;b&gt;&lt;font style=&quot;font-size: 14px&quot;&gt;sd  Entre Information&lt;/font&gt;&lt;/b&gt;&lt;/p&gt;&lt;p style=&quot;margin: 4px 0px 0px 5px ; text-align: left ; font-size: 14px&quot;&gt;&lt;br&gt;&lt;/p&gt;" style="html=1;shape=mxgraph.sysml.package;overflow=fill;labelX=161.4;align=left;spacingLeft=5;verticalAlign=top;spacingTop=-3;fillColor=#dae8fc;strokeColor=#6c8ebf;" vertex="1" parent="1">
          <mxGeometry x="50" y="120" width="500" height="310" as="geometry" />
        </mxCell>
        <mxCell id="2__qpBUTUIT2iE1Ks-om-3" value="&lt;b&gt;&lt;font style=&quot;font-size: 14px&quot;&gt;: AccesControle System&lt;/font&gt;&lt;/b&gt;" style="shape=rect;html=1;whiteSpace=wrap;align=center;" vertex="1" parent="1">
          <mxGeometry x="360" y="170" width="160" height="60" as="geometry" />
        </mxCell>
        <mxCell id="2__qpBUTUIT2iE1Ks-om-4" value="" style="shape=rect;html=1;fillColor=#eeeeee;" vertex="1" parent="1">
          <mxGeometry x="430" y="270" width="20" height="70" as="geometry" />
        </mxCell>
        <mxCell id="2__qpBUTUIT2iE1Ks-om-5" value="" style="edgeStyle=none;html=1;dashed=1;endArrow=none;" edge="1" source="2__qpBUTUIT2iE1Ks-om-3" target="2__qpBUTUIT2iE1Ks-om-4" parent="1">
          <mxGeometry relative="1" as="geometry" />
        </mxCell>
        <mxCell id="2__qpBUTUIT2iE1Ks-om-6" value="" style="edgeStyle=none;html=1;dashed=1;endArrow=none;" edge="1" source="2__qpBUTUIT2iE1Ks-om-4" parent="1">
          <mxGeometry x="1" relative="1" as="geometry">
            <mxPoint x="440" y="390" as="targetPoint" />
          </mxGeometry>
        </mxCell>
        <mxCell id="2__qpBUTUIT2iE1Ks-om-7" value="&lt;b&gt;&lt;font style=&quot;font-size: 14px&quot;&gt;New Employee&lt;/font&gt;&lt;/b&gt;" style="shape=rect;html=1;whiteSpace=wrap;align=center;" vertex="1" parent="1">
          <mxGeometry x="100" y="170" width="160" height="60" as="geometry" />
        </mxCell>
        <mxCell id="2__qpBUTUIT2iE1Ks-om-8" value="" style="shape=rect;html=1;fillColor=#eeeeee;" vertex="1" parent="1">
          <mxGeometry x="170" y="270" width="20" height="80" as="geometry" />
        </mxCell>
        <mxCell id="2__qpBUTUIT2iE1Ks-om-9" value="" style="edgeStyle=none;html=1;dashed=1;endArrow=none;" edge="1" source="2__qpBUTUIT2iE1Ks-om-7" target="2__qpBUTUIT2iE1Ks-om-8" parent="1">
          <mxGeometry relative="1" as="geometry" />
        </mxCell>
        <mxCell id="2__qpBUTUIT2iE1Ks-om-10" value="" style="edgeStyle=none;html=1;dashed=1;endArrow=none;" edge="1" source="2__qpBUTUIT2iE1Ks-om-8" parent="1">
          <mxGeometry x="1" relative="1" as="geometry">
            <mxPoint x="180" y="390" as="targetPoint" />
          </mxGeometry>
        </mxCell>
        <mxCell id="2__qpBUTUIT2iE1Ks-om-11" value="" style="endArrow=classic;html=1;exitX=1;exitY=0;exitDx=0;exitDy=0;" edge="1" parent="1" source="2__qpBUTUIT2iE1Ks-om-8">
          <mxGeometry width="50" height="50" relative="1" as="geometry">
            <mxPoint x="390" y="310" as="sourcePoint" />
            <mxPoint x="440" y="270" as="targetPoint" />
          </mxGeometry>
        </mxCell>
        <mxCell id="2__qpBUTUIT2iE1Ks-om-13" value="enter data" style="text;html=1;strokeColor=none;fillColor=none;align=center;verticalAlign=middle;whiteSpace=wrap;rounded=0;" vertex="1" parent="1">
          <mxGeometry x="250" y="250" width="110" height="20" as="geometry" />
        </mxCell>
        <mxCell id="2__qpBUTUIT2iE1Ks-om-14" value="" style="endArrow=classic;html=1;exitX=0.75;exitY=0;exitDx=0;exitDy=0;" edge="1" parent="1" source="2__qpBUTUIT2iE1Ks-om-4">
          <mxGeometry width="50" height="50" relative="1" as="geometry">
            <mxPoint x="390" y="300" as="sourcePoint" />
            <mxPoint x="445" y="340" as="targetPoint" />
            <Array as="points">
              <mxPoint x="510" y="270" />
              <mxPoint x="510" y="340" />
            </Array>
          </mxGeometry>
        </mxCell>
        <mxCell id="2__qpBUTUIT2iE1Ks-om-16" value="&lt;b&gt;&lt;font style=&quot;font-size: 14px&quot;&gt;Check Data&lt;/font&gt;&lt;/b&gt;" style="text;html=1;strokeColor=none;align=center;verticalAlign=middle;whiteSpace=wrap;rounded=0;shadow=0;fillColor=#ffffff;" vertex="1" parent="1">
          <mxGeometry x="490" y="295" width="40" height="20" as="geometry" />
        </mxCell>
        <mxCell id="2__qpBUTUIT2iE1Ks-om-17" value="" style="endArrow=block;dashed=1;endFill=0;endSize=12;html=1;" edge="1" parent="1">
          <mxGeometry width="160" relative="1" as="geometry">
            <mxPoint x="440" y="390" as="sourcePoint" />
            <mxPoint x="180" y="390" as="targetPoint" />
          </mxGeometry>
        </mxCell>
        <mxCell id="2__qpBUTUIT2iE1Ks-om-19" value="" style="endArrow=classic;html=1;exitX=0.5;exitY=1;exitDx=0;exitDy=0;" edge="1" parent="1" source="2__qpBUTUIT2iE1Ks-om-1" target="2__qpBUTUIT2iE1Ks-om-2">
          <mxGeometry width="50" height="50" relative="1" as="geometry">
            <mxPoint x="390" y="290" as="sourcePoint" />
            <mxPoint x="440" y="240" as="targetPoint" />
          </mxGeometry>
        </mxCell>
        <mxCell id="2__qpBUTUIT2iE1Ks-om-20" value="" style="html=1;whiteSpace=wrap;aspect=fixed;shape=isoRectangle;shadow=0;fillColor=#ffffff;" vertex="1" parent="1">
          <mxGeometry x="258.34000000000003" y="500" width="83.33" height="50" as="geometry" />
        </mxCell>
        <mxCell id="2__qpBUTUIT2iE1Ks-om-21" value="" style="ellipse;html=1;shape=endState;fillColor=#000000;strokeColor=#ff0000;" vertex="1" parent="1">
          <mxGeometry x="440" y="625" width="30" height="30" as="geometry" />
        </mxCell>
        <mxCell id="2__qpBUTUIT2iE1Ks-om-22" value="ref" style="shape=umlFrame;tabPosition=left;html=1;boundedLbl=1;labelInHeader=1;width=50;height=30;shadow=0;strokeColor=#6c8ebf;swimlaneFillColor=none;fillColor=#dae8fc;" vertex="1" parent="1">
          <mxGeometry x="70" y="605" width="160" height="70" as="geometry" />
        </mxCell>
        <mxCell id="2__qpBUTUIT2iE1Ks-om-23" value="Save Data&#xa;" style="text;align=center;fontStyle=1;fontSize=13;" vertex="1" parent="2__qpBUTUIT2iE1Ks-om-22">
          <mxGeometry width="100" height="20" relative="1" as="geometry">
            <mxPoint x="40" y="25" as="offset" />
          </mxGeometry>
        </mxCell>
        <mxCell id="2__qpBUTUIT2iE1Ks-om-25" value="" style="endArrow=classic;html=1;exitX=0.025;exitY=0.508;exitDx=0;exitDy=0;exitPerimeter=0;entryX=0.465;entryY=-0.043;entryDx=0;entryDy=0;entryPerimeter=0;" edge="1" parent="1" source="2__qpBUTUIT2iE1Ks-om-20" target="2__qpBUTUIT2iE1Ks-om-22">
          <mxGeometry width="50" height="50" relative="1" as="geometry">
            <mxPoint x="390" y="690" as="sourcePoint" />
            <mxPoint x="440" y="640" as="targetPoint" />
            <Array as="points">
              <mxPoint x="144" y="525" />
            </Array>
          </mxGeometry>
        </mxCell>
        <mxCell id="2__qpBUTUIT2iE1Ks-om-26" value="" style="endArrow=classic;html=1;" edge="1" parent="1" source="2__qpBUTUIT2iE1Ks-om-22">
          <mxGeometry width="50" height="50" relative="1" as="geometry">
            <mxPoint x="390" y="690" as="sourcePoint" />
            <mxPoint x="440" y="640" as="targetPoint" />
          </mxGeometry>
        </mxCell>
        <mxCell id="2__qpBUTUIT2iE1Ks-om-27" value="[ ok ]" style="text;html=1;strokeColor=none;fillColor=none;align=center;verticalAlign=middle;whiteSpace=wrap;rounded=0;shadow=0;" vertex="1" parent="1">
          <mxGeometry x="140" y="500" width="40" height="20" as="geometry" />
        </mxCell>
        <mxCell id="2__qpBUTUIT2iE1Ks-om-28" value="" style="endArrow=classic;html=1;" edge="1" parent="1" target="2__qpBUTUIT2iE1Ks-om-20">
          <mxGeometry width="50" height="50" relative="1" as="geometry">
            <mxPoint x="300" y="433" as="sourcePoint" />
            <mxPoint x="440" y="540" as="targetPoint" />
          </mxGeometry>
        </mxCell>
        <mxCell id="2__qpBUTUIT2iE1Ks-om-29" value="" style="endArrow=classic;html=1;exitX=0.956;exitY=0.46;exitDx=0;exitDy=0;exitPerimeter=0;entryX=0;entryY=0;entryDx=0;entryDy=0;" edge="1" parent="1" source="2__qpBUTUIT2iE1Ks-om-20" target="2__qpBUTUIT2iE1Ks-om-21">
          <mxGeometry width="50" height="50" relative="1" as="geometry">
            <mxPoint x="390" y="490" as="sourcePoint" />
            <mxPoint x="440" y="440" as="targetPoint" />
            <Array as="points">
              <mxPoint x="444" y="523" />
            </Array>
          </mxGeometry>
        </mxCell>
        <mxCell id="2__qpBUTUIT2iE1Ks-om-30" value="&amp;nbsp;[Not Ok ]" style="text;html=1;strokeColor=none;fillColor=none;align=center;verticalAlign=middle;whiteSpace=wrap;rounded=0;shadow=0;" vertex="1" parent="1">
          <mxGeometry x="380" y="500" width="74" height="20" as="geometry" />
        </mxCell>
        <mxCell id="2__qpBUTUIT2iE1Ks-om-32" value="init node()" style="text;html=1;strokeColor=none;fillColor=none;align=center;verticalAlign=middle;whiteSpace=wrap;rounded=0;shadow=0;fontSize=13;" vertex="1" parent="1">
          <mxGeometry x="250" y="-20" width="120" height="20" as="geometry" />
        </mxCell>
      </root>
    </mxGraphModel>
  </diagram>
</mxfile>
